<?xml version="1.0" encoding="UTF-8"?>
<!DOCTYPE svg PUBLIC "-//W3C//DTD SVG 1.1//EN" "http://www.w3.org/Graphics/SVG/1.1/DTD/svg11.dtd">
<svg xmlns="http://www.w3.org/2000/svg" version="1.1" width="512px" height="512px" style="shape-rendering:geometricPrecision; text-rendering:geometricPrecision; image-rendering:optimizeQuality; fill-rule:evenodd; clip-rule:evenodd" xmlns:xlink="http://www.w3.org/1999/xlink">
<g><path style="opacity:0.982" fill="#010202" d="M 78.5,-0.5 C 143.5,-0.5 208.5,-0.5 273.5,-0.5C 276.095,1.01439 277.429,3.34772 277.5,6.5C 277.023,10.318 275.023,12.818 271.5,14C 227.795,14.0265 184.129,14.6932 140.5,16C 113.892,23.608 97.0584,40.7747 90,67.5C 85.1182,104.581 99.6182,130.748 133.5,146C 137.123,147.156 140.789,148.156 144.5,149C 159.833,149.333 175.167,149.667 190.5,150C 194.007,151.33 195.673,153.83 195.5,157.5C 195.256,160.263 193.923,162.429 191.5,164C 145.665,164.167 99.9982,164.667 54.5,165.5C 39.0326,168.799 29.1993,178.132 25,193.5C 24.5,235.499 24.3333,277.499 24.5,319.5C 31.5079,319.334 38.5079,319.5 45.5,320C 56.4656,322.298 63.6323,328.798 67,339.5C 67.6667,352.5 67.6667,365.5 67,378.5C 64.1667,388 58,394.167 48.5,397C 40.5069,397.5 32.5069,397.666 24.5,397.5C 23.8763,417.712 33.2096,430.878 52.5,437C 56.8206,437.499 61.1539,437.666 65.5,437.5C 67.5309,420.105 74.8643,405.438 87.5,393.5C 108.632,375.619 132.299,371.452 158.5,381C 182.641,392.306 196.641,411.14 200.5,437.5C 225.167,437.5 249.833,437.5 274.5,437.5C 280.446,399.89 302.446,379.557 340.5,376.5C 373.85,377.686 396.016,394.019 407,425.5C 408.015,429.44 408.515,433.44 408.5,437.5C 425.17,437.667 441.837,437.5 458.5,437C 477.734,430.922 487.068,417.755 486.5,397.5C 455.242,402.903 440.909,389.903 443.5,358.5C 441.314,328.359 455.314,315.359 485.5,319.5C 482.246,308.408 475.246,300.575 464.5,296C 448.227,292.677 431.894,289.677 415.5,287C 412.542,286.771 410.042,285.604 408,283.5C 404.605,253.222 401.272,222.889 398,192.5C 393.207,177.373 383.04,168.207 367.5,165C 316.833,164.667 266.167,164.333 215.5,164C 212.507,162.841 210.84,160.675 210.5,157.5C 211.026,154.293 212.692,151.793 215.5,150C 260.833,149.667 306.167,149.333 351.5,149C 358.772,146.387 361.939,141.22 361,133.5C 359.5,128.667 356.333,125.5 351.5,124C 282.456,123.987 213.456,123.32 144.5,122C 122.559,113.3 113.059,97.1329 116,73.5C 120.668,56.0636 131.834,45.2303 149.5,41C 216.833,40.6667 284.167,40.3333 351.5,40C 360.286,36.6638 363.119,30.4971 360,21.5C 358.167,19.6667 356.333,17.8333 354.5,16C 335.231,14.7035 315.898,14.0368 296.5,14C 293.72,12.0867 292.053,9.58675 291.5,6.5C 292.063,3.70516 293.396,1.37183 295.5,-0.5C 315.5,-0.5 335.5,-0.5 355.5,-0.5C 374.063,7.30748 380.23,20.9741 374,40.5C 366.881,52.1456 356.381,57.6456 342.5,57C 327.819,61.8484 321.319,72.0151 323,87.5C 325.391,97.558 331.557,104.058 341.5,107C 366.155,106.983 377.655,119.15 376,143.5C 375.443,145.615 374.609,147.615 373.5,149.5C 396.962,156.106 410.462,171.439 414,195.5C 416.531,221.171 419.031,246.837 421.5,272.5C 438.356,274.698 455.023,277.865 471.5,282C 487.123,288.962 496.956,300.795 501,317.5C 501.971,350.548 501.638,383.548 500,416.5C 492.025,438.8 476.192,450.966 452.5,453C 438.167,453.333 423.833,453.667 409.5,454C 403.079,485.253 384.412,504.42 353.5,511.5C 345.833,511.5 338.167,511.5 330.5,511.5C 299.34,504.338 280.673,485.005 274.5,453.5C 249.833,453.5 225.167,453.5 200.5,453.5C 194.317,485.015 175.65,504.348 144.5,511.5C 136.833,511.5 129.167,511.5 121.5,511.5C 90.3538,504.352 71.6871,485.019 65.5,453.5C 36.1697,453.605 17.6697,439.605 10,411.5C 9.33333,337.833 9.33333,264.167 10,190.5C 14.7973,171.035 26.6306,157.868 45.5,151C 17.6968,130.543 5.86342,103.043 10,68.5C 18.3472,30.9865 41.1805,7.98649 78.5,-0.5 Z"/></g>
<g><path style="opacity:1" fill="#7ce0fd" d="M 277.5,6.5 C 282.167,6.5 286.833,6.5 291.5,6.5C 292.053,9.58675 293.72,12.0867 296.5,14C 315.898,14.0368 335.231,14.7035 354.5,16C 356.333,17.8333 358.167,19.6667 360,21.5C 363.119,30.4971 360.286,36.6638 351.5,40C 284.167,40.3333 216.833,40.6667 149.5,41C 131.834,45.2303 120.668,56.0636 116,73.5C 113.059,97.1329 122.559,113.3 144.5,122C 213.456,123.32 282.456,123.987 351.5,124C 356.333,125.5 359.5,128.667 361,133.5C 361.939,141.22 358.772,146.387 351.5,149C 306.167,149.333 260.833,149.667 215.5,150C 212.692,151.793 211.026,154.293 210.5,157.5C 205.5,157.5 200.5,157.5 195.5,157.5C 195.673,153.83 194.007,151.33 190.5,150C 175.167,149.667 159.833,149.333 144.5,149C 140.789,148.156 137.123,147.156 133.5,146C 99.6182,130.748 85.1182,104.581 90,67.5C 97.0584,40.7747 113.892,23.608 140.5,16C 184.129,14.6932 227.795,14.0265 271.5,14C 275.023,12.818 277.023,10.318 277.5,6.5 Z"/></g>
<g><path style="opacity:1" fill="#2dcdf8" d="M 81.5,14.5 C 90.5062,14.3336 99.5062,14.5002 108.5,15C 81.4763,35.559 70.3096,62.7257 75,96.5C 79.2915,118.109 90.1248,135.609 107.5,149C 73.366,153.682 47.866,141.182 31,111.5C 17.4891,76.3815 25.6558,47.5481 55.5,25C 63.7404,20.2035 72.407,16.7035 81.5,14.5 Z"/></g>
<g><path style="opacity:1" fill="#9999b9" d="M 150.5,56.5 C 205.335,55.1687 260.335,55.1687 315.5,56.5C 315.376,57.1067 315.043,57.44 314.5,57.5C 260.003,56.501 205.336,56.1677 150.5,56.5 Z"/></g>
<g><path style="opacity:1" fill="#d2d2fe" d="M 150.5,56.5 C 205.336,56.1677 260.003,56.501 314.5,57.5C 309.647,64.7249 306.981,72.7249 306.5,81.5C 247.833,81.5 189.167,81.5 130.5,81.5C 130.5,82.8333 130.5,84.1667 130.5,85.5C 129.074,70.5455 135.741,60.8788 150.5,56.5 Z"/></g>
<g><path style="opacity:1" fill="#edecfe" d="M 306.5,81.5 C 307.116,91.0157 310.116,99.6824 315.5,107.5C 260.503,108.667 205.503,108.833 150.5,108C 138.852,104.838 132.185,97.3378 130.5,85.5C 130.5,84.1667 130.5,82.8333 130.5,81.5C 189.167,81.5 247.833,81.5 306.5,81.5 Z"/></g>
<g><path style="opacity:1" fill="#c6a7ef" d="M 195.5,157.5 C 200.5,157.5 205.5,157.5 210.5,157.5C 210.84,160.675 212.507,162.841 215.5,164C 266.167,164.333 316.833,164.667 367.5,165C 383.04,168.207 393.207,177.373 398,192.5C 401.272,222.889 404.605,253.222 408,283.5C 410.042,285.604 412.542,286.771 415.5,287C 431.894,289.677 448.227,292.677 464.5,296C 475.246,300.575 482.246,308.408 485.5,319.5C 455.314,315.359 441.314,328.359 443.5,358.5C 440.909,389.903 455.242,402.903 486.5,397.5C 487.068,417.755 477.734,430.922 458.5,437C 441.837,437.5 425.17,437.667 408.5,437.5C 408.515,433.44 408.015,429.44 407,425.5C 396.016,394.019 373.85,377.686 340.5,376.5C 302.446,379.557 280.446,399.89 274.5,437.5C 249.833,437.5 225.167,437.5 200.5,437.5C 196.641,411.14 182.641,392.306 158.5,381C 132.299,371.452 108.632,375.619 87.5,393.5C 77.068,367.629 70.9014,340.629 69,312.5C 68.5001,298.837 68.3334,285.171 68.5,271.5C 79.7604,272.897 89.5938,269.897 98,262.5C 102.613,256.046 103.613,249.046 101,241.5C 99.669,239.004 97.8356,237.004 95.5,235.5C 98.0526,232.047 99.0526,228.047 98.5,223.5C 100.631,213.843 96.964,209.677 87.5,211C 86.6667,211.833 85.8333,212.667 85,213.5C 83.6115,218.372 83.1115,223.372 83.5,228.5C 79.1667,228.5 74.8333,228.5 70.5,228.5C 72.7646,206.78 78.7646,186.113 88.5,166.5C 77.1862,165.501 65.8529,165.168 54.5,165.5C 99.9982,164.667 145.665,164.167 191.5,164C 193.923,162.429 195.256,160.263 195.5,157.5 Z"/></g>
<g><path style="opacity:1" fill="#b089e1" d="M 54.5,165.5 C 65.8529,165.168 77.1862,165.501 88.5,166.5C 78.7646,186.113 72.7646,206.78 70.5,228.5C 58.0954,230.076 50.7621,236.909 48.5,249C 48.4583,256.92 51.7916,262.92 58.5,267C 61.8153,268.83 65.1486,270.33 68.5,271.5C 68.3334,285.171 68.5001,298.837 69,312.5C 70.9014,340.629 77.068,367.629 87.5,393.5C 74.8643,405.438 67.5309,420.105 65.5,437.5C 61.1539,437.666 56.8206,437.499 52.5,437C 33.2096,430.878 23.8763,417.712 24.5,397.5C 32.5069,397.666 40.5069,397.5 48.5,397C 58,394.167 64.1667,388 67,378.5C 67.6667,365.5 67.6667,352.5 67,339.5C 63.6323,328.798 56.4656,322.298 45.5,320C 38.5079,319.5 31.5079,319.334 24.5,319.5C 24.3333,277.499 24.5,235.499 25,193.5C 29.1993,178.132 39.0326,168.799 54.5,165.5 Z"/></g>
<g><path style="opacity:1" fill="#020202" d="M 281.5,189.5 C 310.921,189.016 340.255,189.516 369.5,191C 371.617,192.731 373.117,194.898 374,197.5C 376.399,220.493 378.733,243.493 381,266.5C 381.667,272.167 381.667,277.833 381,283.5C 380.097,284.701 378.931,285.535 377.5,286C 344.081,286.986 310.748,286.652 277.5,285C 276.299,284.097 275.465,282.931 275,281.5C 274.333,253.5 274.333,225.5 275,197.5C 276.305,194.039 278.471,191.372 281.5,189.5 Z"/></g>
<g><path style="opacity:1" fill="#2e90ad" d="M 359.5,204.5 C 344.167,204.5 328.833,204.5 313.5,204.5C 305.833,204.5 298.167,204.5 290.5,204.5C 290.5,226.833 290.5,249.167 290.5,271.5C 289.503,249.006 289.169,226.339 289.5,203.5C 313.006,203.169 336.339,203.502 359.5,204.5 Z"/></g>
<g><path style="opacity:1" fill="#2ecffb" d="M 313.5,204.5 C 310.867,227.782 314.201,250.116 323.5,271.5C 312.5,271.5 301.5,271.5 290.5,271.5C 290.5,249.167 290.5,226.833 290.5,204.5C 298.167,204.5 305.833,204.5 313.5,204.5 Z"/></g>
<g><path style="opacity:1" fill="#7ce0fd" d="M 313.5,204.5 C 328.833,204.5 344.167,204.5 359.5,204.5C 362.414,226.63 364.747,248.963 366.5,271.5C 352.167,271.5 337.833,271.5 323.5,271.5C 314.201,250.116 310.867,227.782 313.5,204.5 Z"/></g>
<g><path style="opacity:1" fill="#08070a" d="M 95.5,235.5 C 89.1149,237.474 85.1149,235.141 83.5,228.5C 83.1115,223.372 83.6115,218.372 85,213.5C 85.8333,212.667 86.6667,211.833 87.5,211C 96.964,209.677 100.631,213.843 98.5,223.5C 99.0526,228.047 98.0526,232.047 95.5,235.5 Z"/></g>
<g><path style="opacity:1" fill="#060608" d="M 215.5,228.5 C 213.91,235.106 209.91,237.439 203.5,235.5C 201,231.803 200,227.636 200.5,223C 198.536,213.523 202.203,209.523 211.5,211C 212.333,211.833 213.167,212.667 214,213.5C 215.388,218.372 215.888,223.372 215.5,228.5 Z"/></g>
<g><path style="opacity:1" fill="#050407" d="M 130.5,221.5 C 132.857,221.337 135.19,221.503 137.5,222C 145.5,229.333 153.5,229.333 161.5,222C 171.504,221.333 174.337,225.5 170,234.5C 158.683,243.761 146.517,244.928 133.5,238C 131.667,236.167 129.833,234.333 128,232.5C 125.584,228.078 126.417,224.411 130.5,221.5 Z"/></g>
<g><path style="opacity:1" fill="#edebfe" d="M 70.5,228.5 C 74.8333,228.5 79.1667,228.5 83.5,228.5C 85.1149,235.141 89.1149,237.474 95.5,235.5C 97.8356,237.004 99.669,239.004 101,241.5C 103.613,249.046 102.613,256.046 98,262.5C 89.5938,269.897 79.7604,272.897 68.5,271.5C 65.1486,270.33 61.8153,268.83 58.5,267C 51.7916,262.92 48.4583,256.92 48.5,249C 50.7621,236.909 58.0954,230.076 70.5,228.5 Z"/></g>
<g><path style="opacity:1" fill="#edecfe" d="M 215.5,228.5 C 228.483,226.086 239.317,229.753 248,239.5C 253.268,249.721 251.434,258.554 242.5,266C 226.179,275.116 211.679,272.949 199,259.5C 194.549,250.252 196.049,242.252 203.5,235.5C 209.91,237.439 213.91,235.106 215.5,228.5 Z"/></g>
<g><path style="opacity:1" fill="#040305" d="M 96.5,301.5 C 104.571,301.137 112.571,301.637 120.5,303C 130.074,308.663 133.074,316.83 129.5,327.5C 138.795,340.358 137.128,351.525 124.5,361C 122.754,361.471 121.087,362.138 119.5,363C 111.833,363.667 104.167,363.667 96.5,363C 94.2739,361.773 92.7739,359.939 92,357.5C 91.3333,340.5 91.3333,323.5 92,306.5C 93.025,304.313 94.525,302.646 96.5,301.5 Z"/></g>
<g><path style="opacity:1" fill="#040305" d="M 163.5,301.5 C 182.268,299.796 194.768,307.796 201,325.5C 201.985,350.848 189.818,363.348 164.5,363C 146.304,357.124 138.137,344.624 140,325.5C 144.018,313.65 151.851,305.65 163.5,301.5 Z"/></g>
<g><path style="opacity:1" fill="#030304" d="M 232.5,301.5 C 251.85,299.747 264.35,308.081 270,326.5C 270.51,351.323 258.343,363.49 233.5,363C 215.31,357.129 207.144,344.629 209,325.5C 213.018,313.65 220.851,305.65 232.5,301.5 Z"/></g>
<g><path style="opacity:1" fill="#040304" d="M 281.5,301.5 C 290.687,301.47 294.52,306.137 293,315.5C 297.199,310.966 301.699,306.799 306.5,303C 316.158,301.485 319.325,305.319 316,314.5C 309.657,320.011 303.491,325.677 297.5,331.5C 304.486,337.985 311.319,344.652 318,351.5C 320.607,356.456 319.44,360.289 314.5,363C 312.029,363.706 309.695,363.373 307.5,362C 302.985,357.318 298.319,352.818 293.5,348.5C 292.897,352.804 291.897,356.97 290.5,361C 286.527,364.407 282.694,364.24 279,360.5C 277.36,342.257 277.027,323.924 278,305.5C 279.376,304.295 280.542,302.962 281.5,301.5 Z"/></g>
<g><path style="opacity:1" fill="#050406" d="M 341.5,301.5 C 350.68,300.506 359.013,302.673 366.5,308C 369.774,313.369 368.774,317.702 363.5,321C 361.833,321.667 360.167,321.667 358.5,321C 354.48,317.319 349.813,315.986 344.5,317C 343.643,317.689 342.977,318.522 342.5,319.5C 349.382,323.082 356.382,326.582 363.5,330C 373.032,339.962 372.699,349.629 362.5,359C 348.522,366.553 336.355,364.386 326,352.5C 323.943,344.225 327.11,340.725 335.5,342C 340.445,347.823 346.445,349.489 353.5,347C 355.527,345.604 355.86,343.938 354.5,342C 347.833,339 341.167,336 334.5,333C 326.156,324.915 325.489,316.249 332.5,307C 335.564,305.141 338.564,303.308 341.5,301.5 Z"/></g>
<g><path style="opacity:1" fill="#bea0e5" d="M 106.5,316.5 C 109.187,316.336 111.854,316.503 114.5,317C 116.525,318.194 116.859,319.694 115.5,321.5C 112.572,322.484 109.572,322.817 106.5,322.5C 106.5,320.5 106.5,318.5 106.5,316.5 Z"/></g>
<g><path style="opacity:1" fill="#c4a5ec" d="M 165.5,316.5 C 179.336,315.508 186.17,321.841 186,335.5C 183.027,345.074 176.527,349.241 166.5,348C 155.461,342.882 152.294,334.715 157,323.5C 159.441,320.546 162.275,318.213 165.5,316.5 Z"/></g>
<g><path style="opacity:1" fill="#c3a5eb" d="M 234.5,316.5 C 248.318,315.489 255.151,321.822 255,335.5C 251.141,346.346 243.641,350.18 232.5,347C 223.229,341.176 221.062,333.343 226,323.5C 228.441,320.546 231.275,318.213 234.5,316.5 Z"/></g>
<g><path style="opacity:1" fill="#f9df9d" d="M 51.5,376.5 C 40.8604,374.349 31.8604,369.349 24.5,361.5C 24.5,352.5 24.5,343.5 24.5,334.5C 31.175,334.334 37.8417,334.5 44.5,335C 47.1024,335.883 49.2691,337.383 51,339.5C 52.1271,345.73 52.6271,352.063 52.5,358.5C 52.4797,364.578 52.1464,370.578 51.5,376.5 Z"/></g>
<g><path style="opacity:1" fill="#f8de9c" d="M 486.5,371.5 C 474.63,365.961 465.297,357.628 458.5,346.5C 458.189,340.638 460.856,336.804 466.5,335C 473.158,334.5 479.825,334.334 486.5,334.5C 486.5,346.833 486.5,359.167 486.5,371.5 Z"/></g>
<g><path style="opacity:1" fill="#b99de0" d="M 106.5,337.5 C 110.911,337.021 115.078,337.688 119,339.5C 121.291,342.835 120.791,345.668 117.5,348C 113.848,348.499 110.182,348.665 106.5,348.5C 106.5,344.833 106.5,341.167 106.5,337.5 Z"/></g>
<g><path style="opacity:1" fill="#fecc70" d="M 458.5,346.5 C 465.297,357.628 474.63,365.961 486.5,371.5C 486.5,375.167 486.5,378.833 486.5,382.5C 479.159,382.666 471.826,382.5 464.5,382C 462.714,381.215 461.214,380.049 460,378.5C 458.571,367.912 458.071,357.245 458.5,346.5 Z"/></g>
<g><path style="opacity:1" fill="#fdcb70" d="M 24.5,361.5 C 31.8604,369.349 40.8604,374.349 51.5,376.5C 50.7457,379.091 49.079,380.924 46.5,382C 39.1742,382.5 31.8409,382.666 24.5,382.5C 24.5,375.5 24.5,368.5 24.5,361.5 Z"/></g>
<g><path style="opacity:1" fill="#676cae" d="M 122.5,391.5 C 154.762,388.702 175.596,402.702 185,433.5C 188.111,457.101 179.945,475.601 160.5,489C 131.361,503.11 107.194,497.277 88,471.5C 74.5463,445.106 78.713,421.939 100.5,402C 107.266,397.115 114.6,393.615 122.5,391.5 Z"/></g>
<g><path style="opacity:1" fill="#676cae" d="M 330.5,391.5 C 361.557,388.432 382.391,401.432 393,430.5C 397.506,456.982 388.339,477.149 365.5,491C 338.513,502.11 316.013,496.277 298,473.5C 283.314,446.608 287.147,422.775 309.5,402C 316.045,397.394 323.045,393.894 330.5,391.5 Z"/></g>
<g><path style="opacity:1" fill="#020203" d="M 126.5,413.5 C 148.264,412.446 160.264,422.612 162.5,444C 161.343,462.49 151.51,472.323 133,473.5C 119.601,473.093 110.267,466.759 105,454.5C 100.065,434.367 107.231,420.701 126.5,413.5 Z"/></g>
<g><path style="opacity:1" fill="#030304" d="M 335.5,413.5 C 360.007,413.172 371.84,425.172 371,449.5C 365.592,468.302 353.092,476.135 333.5,473C 313.748,464.325 307.581,449.825 315,429.5C 319.99,421.662 326.823,416.329 335.5,413.5 Z"/></g>
<g><path style="opacity:1" fill="#e7e6f8" d="M 129.5,428.5 C 141.83,428.331 147.996,434.331 148,446.5C 144.182,457.657 136.682,461.157 125.5,457C 115.346,448.734 115.013,440.067 124.5,431C 126.315,430.243 127.981,429.41 129.5,428.5 Z"/></g>
<g><path style="opacity:1" fill="#e9e8fa" d="M 337.5,428.5 C 351.527,428.023 357.693,434.69 356,448.5C 350.748,458.724 342.915,461.224 332.5,456C 323.287,444.876 324.954,435.709 337.5,428.5 Z"/></g>
</svg>
